<svg>
  <symbol version="1.1" id="facebook-1" xmlns="http://www.w3.org/2000/svg" xmlns:xlink="http://www.w3.org/1999/xlink" x="0px" y="0px" xml:space="preserve" viewBox="0 0 227.656 227.656">
    <g>
      <path d="M172.52,4.759c1.467,0.321,2.704,1.375,2.613,3.392c-0.504,10.084-1.054,20.213-3.575,30.022
		c0.321,2.75-1.375,5.958-4.538,5.546c-22.551-2.979-30.755,17.326-33.689,40.197c10.725,0.642,21.359,1.467,31.718,2.383
		c1.925,0.183,2.979,1.513,3.208,2.979c0.55,0.367,1.054,0.917,1.283,1.742c1.833,5.959,1.879,12.65,2.017,18.884
		c0.092,4.904,0.688,10.45-2.613,14.346c0.413,2.292-0.825,4.95-3.896,5.042c-11,0.137-22.138,0.321-33.322,0.413
		c0,1.1,0,2.2-0.046,3.208c-0.779,29.93,0.504,59.768,0.183,89.652c-0.046,2.338-1.925,3.208-3.621,2.888
		c-0.229,0.137-0.458,0.321-0.733,0.412c-5.638,1.788-12.009,1.513-17.875,1.696c-5.821,0.137-11.55,0.275-17.326-0.733
		c-1.421,0.458-3.163,0-3.483-1.879c-5.179-29.609-4.308-60.868-4.171-90.844c0-1.879,0-3.758,0-5.638
		c-9.121-0.596-18.196-1.513-27.134-2.796c-1.375-0.229-2.063-1.146-2.154-2.2c-3.3-2.2-2.521-7.975-2.567-11.596
		c-0.138-7.792-1.008-16.821,1.237-24.338c0.229-0.779,0.779-1.283,1.467-1.65c0.412-0.458,1.008-0.779,1.833-0.871
		c9.121-1.1,18.517-1.742,28.005-2.063c0.458-8.617,1.238-17.234,2.567-25.667c6.279-40.243,40.793-64.673,81.54-55.277
		C171.145,2.421,172.107,3.521,172.52,4.759z"></path>
    </g>
    <g></g>
    <g></g>
    <g></g>
    <g></g>
    <g></g>
    <g></g>
    <g></g>
    <g></g>
    <g></g>
    <g></g>
    <g></g>
    <g></g>
    <g></g>
    <g></g>
    <g></g>
  </symbol>
  <symbol xmlns="http://www.w3.org/2000/svg" viewBox="0 0 64 64" id="youtube-1">
    <title></title>
    <path d="M30.8,53.06a146.19,146.19,0,0,1-15.94-.83A13,13,0,0,1,3.39,40.62a83.16,83.16,0,0,1,.12-17.28A13.07,13.07,0,0,1,15.23,11.91a160.72,160.72,0,0,1,33.6,0A13.07,13.07,0,0,1,60.6,23.64a82.79,82.79,0,0,1-.07,16.95A12.85,12.85,0,0,1,49,52.24h0C42.42,52.79,36.41,53.06,30.8,53.06Zm1.29-40a164.28,164.28,0,0,0-16.65.85A11.06,11.06,0,0,0,5.5,23.56a81.11,81.11,0,0,0-.12,16.87,11,11,0,0,0,9.69,9.82,175.5,175.5,0,0,0,33.79,0h0a10.85,10.85,0,0,0,9.67-9.87,80.8,80.8,0,0,0,.07-16.54,11.09,11.09,0,0,0-10-9.91A153,153,0,0,0,32.09,13Z"></path>
    <path d="M26,41.5a1,1,0,0,1-1-1v-17a1,1,0,0,1,1.54-.84l14,9a1,1,0,0,1,0,1.71l-14,8A1,1,0,0,1,26,41.5Zm1-16.17V38.78l11.07-6.33Z"></path>
  </symbol>
  <symbol id="website-1" version="1.1" xml:space="preserve" xmlns="http://www.w3.org/2000/svg" xmlns:xlink="http://www.w3.org/1999/xlink" viewBox="0 0 512 512">
    <path d="M256,0C114.615,0,0,114.615,0,256s114.615,256,256,256s256-114.615,256-256S397.385,0,256,0z M418.275,146h-46.667  c-5.365-22.513-12.324-43.213-20.587-61.514c15.786,8.776,30.449,19.797,43.572,32.921C403.463,126.277,411.367,135.854,418.275,146  z M452,256c0,17.108-2.191,33.877-6.414,50h-64.034c1.601-16.172,2.448-32.887,2.448-50s-0.847-33.828-2.448-50h64.034  C449.809,222.123,452,238.892,452,256z M256,452c-5.2,0-21.048-10.221-36.844-41.813c-6.543-13.087-12.158-27.994-16.752-44.187  h107.191c-4.594,16.192-10.208,31.1-16.752,44.187C277.048,441.779,261.2,452,256,452z M190.813,306  c-1.847-16.247-2.813-33.029-2.813-50s0.966-33.753,2.813-50h130.374c1.847,16.247,2.813,33.029,2.813,50s-0.966,33.753-2.813,50  H190.813z M60,256c0-17.108,2.191-33.877,6.414-50h64.034c-1.601,16.172-2.448,32.887-2.448,50s0.847,33.828,2.448,50H66.414  C62.191,289.877,60,273.108,60,256z M256,60c5.2,0,21.048,10.221,36.844,41.813c6.543,13.087,12.158,27.994,16.752,44.187H202.404  c4.594-16.192,10.208-31.1,16.752-44.187C234.952,70.221,250.8,60,256,60z M160.979,84.486c-8.264,18.301-15.222,39-20.587,61.514  H93.725c6.909-10.146,14.812-19.723,23.682-28.593C130.531,104.283,145.193,93.262,160.979,84.486z M93.725,366h46.667  c5.365,22.513,12.324,43.213,20.587,61.514c-15.786-8.776-30.449-19.797-43.572-32.921C108.537,385.723,100.633,376.146,93.725,366z   M351.021,427.514c8.264-18.301,15.222-39,20.587-61.514h46.667c-6.909,10.146-14.812,19.723-23.682,28.593  C381.469,407.717,366.807,418.738,351.021,427.514z"></path>
  </symbol>
  <symbol version="1.1" id="instagram-1" xmlns="http://www.w3.org/2000/svg" xmlns:xlink="http://www.w3.org/1999/xlink" x="0px" y="0px" xml:space="preserve" viewBox="0 0 551.034 551.034">
    <g id="XMLID_13_">
      <linearGradient id="XMLID_2_" gradientUnits="userSpaceOnUse" x1="275.517" y1="4.5714" x2="275.517" y2="549.7202" gradientTransform="matrix(1 0 0 -1 0 554)">
        <stop offset="0"></stop>
        <stop offset="0.3"></stop>
        <stop offset="0.6"></stop>
        <stop offset="1"></stop>
      </linearGradient>
      <path id="XMLID_17_" d="M386.878,0H164.156C73.64,0,0,73.64,0,164.156v222.722
		c0,90.516,73.64,164.156,164.156,164.156h222.722c90.516,0,164.156-73.64,164.156-164.156V164.156
		C551.033,73.64,477.393,0,386.878,0z M495.6,386.878c0,60.045-48.677,108.722-108.722,108.722H164.156
		c-60.045,0-108.722-48.677-108.722-108.722V164.156c0-60.046,48.677-108.722,108.722-108.722h222.722
		c60.045,0,108.722,48.676,108.722,108.722L495.6,386.878L495.6,386.878z"></path>
      <linearGradient id="XMLID_3_" gradientUnits="userSpaceOnUse" x1="275.517" y1="4.5714" x2="275.517" y2="549.7202" gradientTransform="matrix(1 0 0 -1 0 554)">
        <stop offset="0"></stop>
        <stop offset="0.3"></stop>
        <stop offset="0.6"></stop>
        <stop offset="1"></stop>
      </linearGradient>
      <path id="XMLID_81_" d="M275.517,133C196.933,133,133,196.933,133,275.516
		s63.933,142.517,142.517,142.517S418.034,354.1,418.034,275.516S354.101,133,275.517,133z M275.517,362.6
		c-48.095,0-87.083-38.988-87.083-87.083s38.989-87.083,87.083-87.083c48.095,0,87.083,38.988,87.083,87.083
		C362.6,323.611,323.611,362.6,275.517,362.6z"></path>
      <linearGradient id="XMLID_4_" gradientUnits="userSpaceOnUse" x1="418.306" y1="4.5714" x2="418.306" y2="549.7202" gradientTransform="matrix(1 0 0 -1 0 554)">
        <stop offset="0"></stop>
        <stop offset="0.3"></stop>
        <stop offset="0.6"></stop>
        <stop offset="1"></stop>
      </linearGradient>
      <circle id="XMLID_83_" cx="418.306" cy="134.072" r="34.149"></circle>
    </g>
    <g></g>
    <g></g>
    <g></g>
    <g></g>
    <g></g>
    <g></g>
    <g></g>
    <g></g>
    <g></g>
    <g></g>
    <g></g>
    <g></g>
    <g></g>
    <g></g>
    <g></g>
  </symbol>
  <symbol version="1.1" id="mail-1" xmlns="http://www.w3.org/2000/svg" xmlns:xlink="http://www.w3.org/1999/xlink" x="0px" y="0px" xml:space="preserve" viewBox="0 0 58.561 58.561">
    <g>
      <path d="M57.688,30.369l-2.85-2.85c-1.164-1.164-3.057-1.162-4.221,0L35.226,42.91l-2.121,7.779l-0.519,0.519
		c-0.388,0.388-0.389,1.014-0.006,1.405l-0.005,0.02l0.019-0.005c0.194,0.191,0.446,0.288,0.699,0.288
		c0.256,0,0.512-0.098,0.707-0.293l0.52-0.52l7.778-2.121l15.39-15.391C58.852,33.427,58.852,31.533,57.688,30.369z M37.535,43.43
		l10.243-10.243l4.243,4.243L41.778,47.673L37.535,43.43z M36.633,45.356l3.22,3.22l-4.428,1.207L36.633,45.356z M56.274,33.177
		l-2.839,2.839l-4.243-4.242l2.839-2.839c0.385-0.385,1.01-0.384,1.394-0.001l2.85,2.85C56.658,32.167,56.658,32.793,56.274,33.177z
		"></path>
      <path d="M29,44.646H3.879c4.548-3.604,14.801-11.781,20.069-16.403l1.421,1.255c1.001,0.894,2.317,1.341,3.632,1.341
		c1.313,0,2.627-0.446,3.625-1.337L56,8.863v15.782c0,0.553,0.448,1,1,1s1-0.447,1-1v-18c0-0.008-0.004-0.014-0.005-0.022
		c-0.002-0.111-0.019-0.223-0.06-0.331c-0.003-0.007-0.008-0.012-0.011-0.019c-0.011-0.027-0.029-0.048-0.041-0.073
		c-0.041-0.081-0.09-0.156-0.15-0.222c-0.026-0.028-0.053-0.052-0.082-0.077c-0.062-0.055-0.13-0.1-0.204-0.137
		c-0.033-0.017-0.063-0.034-0.097-0.047C57.24,5.675,57.124,5.646,57,5.646H1c-0.124,0-0.24,0.029-0.351,0.071
		C0.614,5.73,0.584,5.747,0.552,5.764C0.478,5.802,0.41,5.847,0.348,5.901C0.319,5.927,0.292,5.95,0.266,5.978
		c-0.06,0.066-0.108,0.14-0.15,0.222C0.104,6.226,0.086,6.247,0.075,6.273C0.072,6.28,0.067,6.285,0.064,6.292
		C0.024,6.4,0.007,6.512,0.005,6.623C0.004,6.631,0,6.638,0,6.646v39c0,0.003,0.002,0.005,0.002,0.009
		c0.001,0.107,0.017,0.214,0.053,0.319c0.004,0.012,0.013,0.021,0.018,0.033c0.014,0.035,0.035,0.065,0.052,0.098
		c0.038,0.073,0.082,0.141,0.136,0.201c0.028,0.031,0.056,0.058,0.087,0.085c0.061,0.053,0.127,0.097,0.199,0.134
		c0.034,0.018,0.065,0.037,0.101,0.051C0.759,46.617,0.876,46.646,1,46.646h28c0.552,0,1-0.447,1-1S29.552,44.646,29,44.646z
		 M2,43.582V8.863l20.437,18.046C16.881,31.763,6.086,40.349,2,43.582z M54.357,7.646l-23.058,20.36
		c-1.267,1.132-3.33,1.132-4.602-0.004l-1.979-1.747c-0.006-0.007-0.007-0.015-0.013-0.021c-0.022-0.025-0.053-0.035-0.077-0.057
		L3.643,7.646H54.357z"></path>
    </g>
    <g></g>
    <g></g>
    <g></g>
    <g></g>
    <g></g>
    <g></g>
    <g></g>
    <g></g>
    <g></g>
    <g></g>
    <g></g>
    <g></g>
    <g></g>
    <g></g>
    <g></g>
  </symbol>
    <symbol fill="none" xmlns="http://www.w3.org/2000/svg" viewBox="0 0 20 14" id="Burger">
    <path d="M0 1H20" stroke="#D41443"></path>
    <path d="M0 7H20" stroke="#D41443"></path>
    <path d="M0 13H20" stroke="#D41443"></path>
  </symbol>
    <symbol fill="none" xmlns="http://www.w3.org/2000/svg" viewBox="0 0 16 16" id="close">
    <path d="M1.25928 1L14.7408 15" stroke="white"></path>
    <path d="M1 14.7407L15 1.25924" stroke="white"></path>
  </symbol>
</svg>